<svg xmlns="http://www.w3.org/2000/svg" width="74" height="74" viewBox="0 0 74 74">
  <metadata><?xpacket begin="﻿" id="W5M0MpCehiHzreSzNTczkc9d"?>
<x:xmpmeta xmlns:x="adobe:ns:meta/" x:xmptk="Adobe XMP Core 5.6-c138 79.159824, 2016/09/14-01:09:01        ">
   <rdf:RDF xmlns:rdf="http://www.w3.org/1999/02/22-rdf-syntax-ns#">
      <rdf:Description rdf:about=""/>
   </rdf:RDF>
</x:xmpmeta>
                                                                                                    
                                                                                                    
                                                                                                    
                                                                                                    
                                                                                                    
                                                                                                    
                                                                                                    
                                                                                                    
                                                                                                    
                                                                                                    
                                                                                                    
                                                                                                    
                                                                                                    
                                                                                                    
                                                                                                    
                                                                                                    
                                                                                                    
                                                                                                    
                                                                                                    
                                                                                                    
                           
<?xpacket end="w"?></metadata>
<defs>
    <style>
      .cls-1 {
        fill-rule: evenodd;
      }
    </style>
  </defs>
  <path class="cls-1" d="M4,74H0V0H74V74H4ZM70,4H4V70H70V4ZM19.756,48.706h5.56v-5.84h3.12v13.98h-3.12v-5.5h-5.56v5.5h-3.12V42.866h3.12v5.84Zm25.277-5.84h3.74l2.66,4.14,2.66-4.14h3.76l-4.36,6.74,4.72,7.24h-3.8l-2.98-4.6-2.96,4.6h-3.76l4.7-7.16Zm1.124-27.582h3.12v11.2h5.96v2.78h-9.08V15.284ZM21.794,24.691h-1.86v3.9h-3.12V14.611h4.94a7.178,7.178,0,0,1,4.69,1.25,4.764,4.764,0,0,1,1.47,3.84,4.549,4.549,0,0,1-1.51,3.79A7.344,7.344,0,0,1,21.794,24.691Zm2.19-6.89a4.012,4.012,0,0,0-2.27-.51h-1.78v4.7h2.1a2.784,2.784,0,0,0,2.12-.63,2.688,2.688,0,0,0,.56-1.84A1.95,1.95,0,0,0,23.984,17.8Z"/>
</svg>